<svg width="171" height="59" viewBox="0 0 171 59" fill="none" xmlns="http://www.w3.org/2000/svg">
<rect x="0.900024" y="0.699951" width="170" height="58" rx="8" fill="#1F4149"/>
<g clip-path="url(#clip0_4187_43467)">
<path d="M39.264 13.716C39.196 13.64 36.746 13.746 34.614 16.06C32.482 18.372 32.81 21.024 32.858 21.092C32.906 21.16 35.898 21.266 37.808 18.576C39.718 15.886 39.332 13.794 39.264 13.716ZM45.892 37.182C45.796 36.99 41.242 34.714 41.666 30.338C42.09 25.96 45.016 24.76 45.062 24.63C45.108 24.5 43.868 23.05 42.554 22.316C41.5892 21.7985 40.5215 21.502 39.428 21.448C39.212 21.442 38.462 21.258 36.92 21.68C35.904 21.958 33.614 22.858 32.984 22.894C32.352 22.93 30.472 21.85 28.45 21.564C27.156 21.314 25.784 21.826 24.802 22.22C23.822 22.612 21.958 23.728 20.654 26.694C19.35 29.658 20.032 34.354 20.52 35.814C21.008 37.272 21.77 39.662 23.066 41.406C24.218 43.374 25.746 44.74 26.384 45.204C27.022 45.668 28.822 45.976 30.07 45.338C31.074 44.722 32.886 44.368 33.602 44.394C34.316 44.42 35.724 44.702 37.166 45.472C38.308 45.866 39.388 45.702 40.47 45.262C41.552 44.82 43.118 43.144 44.946 39.746C45.64 38.166 45.956 37.312 45.892 37.182Z" fill="#F5FFFF"/>
</g>
<path d="M59.058 20.803H61.138C61.7967 20.803 62.386 20.6426 62.906 20.322C63.426 20.0013 63.8377 19.568 64.141 19.022C64.453 18.4673 64.609 17.8433 64.609 17.15C64.609 16.4566 64.453 15.837 64.141 15.291C63.8377 14.7363 63.426 14.2986 62.906 13.978C62.386 13.6573 61.7967 13.497 61.138 13.497H59.058V20.803ZM58.057 21.7V12.6H61.073C61.7404 12.6 62.3514 12.717 62.906 12.951C63.4694 13.1763 63.9504 13.497 64.349 13.913C64.7564 14.3203 65.0684 14.8013 65.285 15.356C65.5104 15.902 65.623 16.5 65.623 17.15C65.623 17.8 65.5104 18.4023 65.285 18.957C65.0684 19.503 64.7564 19.984 64.349 20.4C63.9504 20.8073 63.4694 21.128 62.906 21.362C62.3514 21.5873 61.7404 21.7 61.073 21.7H58.057ZM69.881 21.804C69.2917 21.804 68.763 21.661 68.295 21.375C67.827 21.089 67.4587 20.699 67.19 20.205C66.9214 19.711 66.787 19.152 66.787 18.528C66.787 17.904 66.9214 17.345 67.19 16.851C67.4587 16.357 67.827 15.967 68.295 15.681C68.763 15.395 69.2917 15.252 69.881 15.252C70.4617 15.252 70.9817 15.395 71.441 15.681C71.909 15.967 72.2774 16.357 72.546 16.851C72.8147 17.345 72.949 17.904 72.949 18.528C72.949 19.152 72.8147 19.711 72.546 20.205C72.2774 20.699 71.909 21.089 71.441 21.375C70.9817 21.661 70.4617 21.804 69.881 21.804ZM69.868 20.972C70.284 20.972 70.6524 20.868 70.973 20.66C71.2937 20.4433 71.545 20.1486 71.727 19.776C71.9177 19.4033 72.013 18.9873 72.013 18.528C72.013 18.06 71.9177 17.644 71.727 17.28C71.545 16.9073 71.2937 16.617 70.973 16.409C70.6524 16.1923 70.284 16.084 69.868 16.084C69.452 16.084 69.0837 16.1923 68.763 16.409C68.4424 16.617 68.1867 16.9073 67.996 17.28C67.814 17.644 67.723 18.06 67.723 18.528C67.723 18.9873 67.814 19.4033 67.996 19.776C68.1867 20.1486 68.4424 20.4433 68.763 20.66C69.0837 20.868 69.452 20.972 69.868 20.972ZM75.3581 21.7L73.6161 15.356H74.5391L75.8651 20.426L77.3861 15.356H78.2311L79.7521 20.426L81.0651 15.356H81.9621L80.2331 21.7H79.3101L77.8021 16.578L76.2941 21.7H75.3581ZM83.0442 21.7V15.356H83.9932V16.383C84.2359 16.0016 84.5262 15.72 84.8642 15.538C85.2022 15.3473 85.5836 15.252 86.0082 15.252C86.4676 15.252 86.8662 15.3516 87.2042 15.551C87.5509 15.7416 87.8196 16.0146 88.0102 16.37C88.2096 16.7166 88.3092 17.124 88.3092 17.592V21.7H87.3602V17.865C87.3602 17.3016 87.2042 16.8596 86.8922 16.539C86.5889 16.2096 86.1772 16.045 85.6572 16.045C85.3106 16.045 84.9942 16.1273 84.7082 16.292C84.4222 16.4566 84.1839 16.6993 83.9932 17.02V21.7H83.0442ZM89.9571 21.7V12.314L90.9061 12.119V21.7H89.9571ZM95.3996 21.804C94.8103 21.804 94.2816 21.661 93.8136 21.375C93.3456 21.089 92.9773 20.699 92.7086 20.205C92.44 19.711 92.3056 19.152 92.3056 18.528C92.3056 17.904 92.44 17.345 92.7086 16.851C92.9773 16.357 93.3456 15.967 93.8136 15.681C94.2816 15.395 94.8103 15.252 95.3996 15.252C95.9803 15.252 96.5003 15.395 96.9596 15.681C97.4276 15.967 97.796 16.357 98.0646 16.851C98.3333 17.345 98.4676 17.904 98.4676 18.528C98.4676 19.152 98.3333 19.711 98.0646 20.205C97.796 20.699 97.4276 21.089 96.9596 21.375C96.5003 21.661 95.9803 21.804 95.3996 21.804ZM95.3866 20.972C95.8026 20.972 96.171 20.868 96.4916 20.66C96.8123 20.4433 97.0636 20.1486 97.2456 19.776C97.4363 19.4033 97.5316 18.9873 97.5316 18.528C97.5316 18.06 97.4363 17.644 97.2456 17.28C97.0636 16.9073 96.8123 16.617 96.4916 16.409C96.171 16.1923 95.8026 16.084 95.3866 16.084C94.9706 16.084 94.6023 16.1923 94.2816 16.409C93.961 16.617 93.7053 16.9073 93.5146 17.28C93.3326 17.644 93.2416 18.06 93.2416 18.528C93.2416 18.9873 93.3326 19.4033 93.5146 19.776C93.7053 20.1486 93.961 20.4433 94.2816 20.66C94.6023 20.868 94.9706 20.972 95.3866 20.972ZM101.899 21.817C101.448 21.817 101.05 21.7346 100.703 21.57C100.356 21.4053 100.083 21.18 99.8841 20.894C99.6935 20.5993 99.5981 20.2613 99.5981 19.88C99.5981 19.4986 99.6978 19.1693 99.8971 18.892C100.096 18.606 100.374 18.385 100.729 18.229C101.084 18.073 101.5 17.995 101.977 17.995C102.341 17.995 102.683 18.034 103.004 18.112C103.333 18.19 103.637 18.3156 103.914 18.489V17.618C103.914 17.098 103.775 16.708 103.498 16.448C103.221 16.1793 102.813 16.045 102.276 16.045C101.981 16.045 101.678 16.0883 101.366 16.175C101.063 16.2616 100.725 16.4003 100.352 16.591L100.001 15.863C100.85 15.4556 101.648 15.252 102.393 15.252C103.182 15.252 103.788 15.447 104.213 15.837C104.638 16.2183 104.85 16.7686 104.85 17.488V21.7H103.914V20.959C103.637 21.245 103.329 21.4616 102.991 21.609C102.653 21.7476 102.289 21.817 101.899 21.817ZM100.508 19.854C100.508 20.2266 100.651 20.5256 100.937 20.751C101.232 20.9763 101.617 21.089 102.094 21.089C102.449 21.089 102.774 21.0283 103.069 20.907C103.372 20.7856 103.654 20.6036 103.914 20.361V19.139C103.645 18.983 103.368 18.8703 103.082 18.801C102.796 18.723 102.475 18.684 102.12 18.684C101.635 18.684 101.245 18.7923 100.95 19.009C100.655 19.217 100.508 19.4986 100.508 19.854ZM109.158 21.791C108.612 21.791 108.118 21.648 107.676 21.362C107.234 21.0673 106.883 20.6773 106.623 20.192C106.363 19.698 106.233 19.1476 106.233 18.541C106.233 17.9256 106.363 17.3753 106.623 16.89C106.892 16.396 107.251 16.006 107.702 15.72C108.153 15.4253 108.655 15.278 109.21 15.278C109.6 15.278 109.964 15.356 110.302 15.512C110.64 15.6593 110.935 15.876 111.186 16.162V12.314L112.135 12.119V21.7H111.186V20.855C110.943 21.1583 110.649 21.3923 110.302 21.557C109.955 21.713 109.574 21.791 109.158 21.791ZM109.392 20.959C109.765 20.959 110.107 20.8853 110.419 20.738C110.731 20.5906 110.987 20.3826 111.186 20.114V16.968C110.978 16.6993 110.714 16.4913 110.393 16.344C110.081 16.188 109.747 16.11 109.392 16.11C108.967 16.11 108.586 16.214 108.248 16.422C107.919 16.63 107.654 16.916 107.455 17.28C107.264 17.644 107.169 18.06 107.169 18.528C107.169 18.9873 107.264 19.4033 107.455 19.776C107.654 20.14 107.919 20.4303 108.248 20.647C108.586 20.855 108.967 20.959 109.392 20.959ZM119.407 21.804C118.818 21.804 118.289 21.661 117.821 21.375C117.353 21.089 116.985 20.699 116.716 20.205C116.448 19.711 116.313 19.152 116.313 18.528C116.313 17.904 116.448 17.345 116.716 16.851C116.985 16.357 117.353 15.967 117.821 15.681C118.289 15.395 118.818 15.252 119.407 15.252C119.988 15.252 120.508 15.395 120.967 15.681C121.435 15.967 121.804 16.357 122.072 16.851C122.341 17.345 122.475 17.904 122.475 18.528C122.475 19.152 122.341 19.711 122.072 20.205C121.804 20.699 121.435 21.089 120.967 21.375C120.508 21.661 119.988 21.804 119.407 21.804ZM119.394 20.972C119.81 20.972 120.179 20.868 120.499 20.66C120.82 20.4433 121.071 20.1486 121.253 19.776C121.444 19.4033 121.539 18.9873 121.539 18.528C121.539 18.06 121.444 17.644 121.253 17.28C121.071 16.9073 120.82 16.617 120.499 16.409C120.179 16.1923 119.81 16.084 119.394 16.084C118.978 16.084 118.61 16.1923 118.289 16.409C117.969 16.617 117.713 16.9073 117.522 17.28C117.34 17.644 117.249 18.06 117.249 18.528C117.249 18.9873 117.34 19.4033 117.522 19.776C117.713 20.1486 117.969 20.4433 118.289 20.66C118.61 20.868 118.978 20.972 119.394 20.972ZM123.88 21.7V15.356H124.829V16.383C125.072 16.0016 125.362 15.72 125.7 15.538C126.038 15.3473 126.42 15.252 126.844 15.252C127.304 15.252 127.702 15.3516 128.04 15.551C128.387 15.7416 128.656 16.0146 128.846 16.37C129.046 16.7166 129.145 17.124 129.145 17.592V21.7H128.196V17.865C128.196 17.3016 128.04 16.8596 127.728 16.539C127.425 16.2096 127.013 16.045 126.493 16.045C126.147 16.045 125.83 16.1273 125.544 16.292C125.258 16.4566 125.02 16.6993 124.829 17.02V21.7H123.88ZM135.986 21.83C135.44 21.83 135.024 21.7 134.738 21.44C134.46 21.1713 134.322 20.7856 134.322 20.283V16.136H133.009V15.356H134.322V13.614L135.271 13.393V15.356H137.091V16.136H135.271V20.036C135.271 20.374 135.34 20.6166 135.479 20.764C135.626 20.9113 135.864 20.985 136.194 20.985C136.358 20.985 136.506 20.972 136.636 20.946C136.766 20.92 136.917 20.8766 137.091 20.816V21.661C136.917 21.7216 136.735 21.765 136.545 21.791C136.354 21.817 136.168 21.83 135.986 21.83ZM138.221 21.7V12.314L139.17 12.119V16.383C139.412 16.0016 139.703 15.72 140.041 15.538C140.379 15.3473 140.76 15.252 141.185 15.252C141.644 15.252 142.043 15.3516 142.381 15.551C142.727 15.7416 142.996 16.0146 143.187 16.37C143.386 16.7166 143.486 17.124 143.486 17.592V21.7H142.537V17.865C142.537 17.3016 142.381 16.8596 142.069 16.539C141.765 16.2096 141.354 16.045 140.834 16.045C140.487 16.045 140.171 16.1273 139.885 16.292C139.599 16.4566 139.36 16.6993 139.17 17.02V21.7H138.221ZM147.993 21.83C147.404 21.83 146.871 21.687 146.394 21.401C145.918 21.1063 145.541 20.712 145.263 20.218C144.986 19.7153 144.847 19.152 144.847 18.528C144.847 17.904 144.977 17.345 145.237 16.851C145.506 16.357 145.866 15.967 146.316 15.681C146.767 15.395 147.27 15.252 147.824 15.252C148.388 15.252 148.886 15.395 149.319 15.681C149.761 15.9583 150.108 16.3396 150.359 16.825C150.619 17.3016 150.749 17.8433 150.749 18.45V18.736H145.77C145.805 19.1693 145.922 19.5593 146.121 19.906C146.329 20.244 146.598 20.5126 146.927 20.712C147.265 20.9026 147.634 20.998 148.032 20.998C148.362 20.998 148.678 20.9416 148.981 20.829C149.293 20.7076 149.558 20.5473 149.774 20.348L150.372 20.985C150.008 21.271 149.631 21.4833 149.241 21.622C148.851 21.7606 148.435 21.83 147.993 21.83ZM145.796 18.06H149.813C149.77 17.6786 149.653 17.3406 149.462 17.046C149.28 16.7426 149.046 16.5043 148.76 16.331C148.483 16.1576 148.171 16.071 147.824 16.071C147.478 16.071 147.161 16.1576 146.875 16.331C146.589 16.4956 146.351 16.7296 146.16 17.033C145.978 17.3276 145.857 17.67 145.796 18.06ZM57.02 45.7L62.52 31.7H65.3L70.72 45.7H68.14L66.7 41.78H60.96L59.52 45.7H57.02ZM61.66 39.9H66.04L63.84 33.98L61.66 39.9ZM72.2453 49.88V35.68H74.4653V37.1C74.8253 36.62 75.272 36.2533 75.8053 36C76.352 35.7333 76.9453 35.6 77.5853 35.6C78.4387 35.6 79.2053 35.8266 79.8853 36.28C80.5653 36.7333 81.1053 37.3466 81.5053 38.12C81.9053 38.8933 82.1053 39.7533 82.1053 40.7C82.1053 41.6466 81.8987 42.5066 81.4853 43.28C81.072 44.0533 80.512 44.6666 79.8053 45.12C79.0987 45.5733 78.312 45.8 77.4453 45.8C76.8453 45.8 76.292 45.6933 75.7853 45.48C75.292 45.2533 74.8653 44.9333 74.5053 44.52V49.88H72.2453ZM76.9053 43.92C77.4787 43.92 77.9853 43.78 78.4253 43.5C78.8787 43.22 79.232 42.84 79.4853 42.36C79.752 41.8666 79.8853 41.3133 79.8853 40.7C79.8853 40.0866 79.752 39.54 79.4853 39.06C79.232 38.58 78.8787 38.2 78.4253 37.92C77.9853 37.64 77.4787 37.5 76.9053 37.5C76.412 37.5 75.9587 37.6 75.5453 37.8C75.132 37.9866 74.7853 38.26 74.5053 38.62V42.8C74.7987 43.1466 75.152 43.42 75.5653 43.62C75.9787 43.82 76.4253 43.92 76.9053 43.92ZM84.4719 49.88V35.68H86.6919V37.1C87.0519 36.62 87.4986 36.2533 88.0319 36C88.5786 35.7333 89.1719 35.6 89.8119 35.6C90.6652 35.6 91.4319 35.8266 92.1119 36.28C92.7919 36.7333 93.3319 37.3466 93.7319 38.12C94.1319 38.8933 94.3319 39.7533 94.3319 40.7C94.3319 41.6466 94.1252 42.5066 93.7119 43.28C93.2986 44.0533 92.7386 44.6666 92.0319 45.12C91.3252 45.5733 90.5386 45.8 89.6719 45.8C89.0719 45.8 88.5186 45.6933 88.0119 45.48C87.5186 45.2533 87.0919 44.9333 86.7319 44.52V49.88H84.4719ZM89.1319 43.92C89.7052 43.92 90.2119 43.78 90.6519 43.5C91.1052 43.22 91.4586 42.84 91.7119 42.36C91.9786 41.8666 92.1119 41.3133 92.1119 40.7C92.1119 40.0866 91.9786 39.54 91.7119 39.06C91.4586 38.58 91.1052 38.2 90.6519 37.92C90.2119 37.64 89.7052 37.5 89.1319 37.5C88.6386 37.5 88.1852 37.6 87.7719 37.8C87.3586 37.9866 87.0119 38.26 86.7319 38.62V42.8C87.0252 43.1466 87.3786 43.42 87.7919 43.62C88.2052 43.82 88.6519 43.92 89.1319 43.92ZM106.151 45.92C105.057 45.92 104.024 45.7333 103.051 45.36C102.091 44.9733 101.164 44.4066 100.271 43.66L101.571 41.9C102.477 42.6333 103.284 43.16 103.991 43.48C104.711 43.7866 105.477 43.94 106.291 43.94C106.904 43.94 107.444 43.8466 107.911 43.66C108.391 43.46 108.757 43.1933 109.011 42.86C109.277 42.5266 109.411 42.14 109.411 41.7C109.411 41.1266 109.217 40.6933 108.831 40.4C108.457 40.0933 107.804 39.86 106.871 39.7L104.291 39.26C103.077 39.0466 102.171 38.64 101.571 38.04C100.984 37.4266 100.691 36.6466 100.691 35.7C100.691 34.86 100.904 34.1266 101.331 33.5C101.757 32.86 102.351 32.3666 103.111 32.02C103.884 31.66 104.797 31.48 105.851 31.48C106.904 31.48 107.904 31.6333 108.851 31.94C109.797 32.2466 110.671 32.6933 111.471 33.28L110.251 35.08C109.544 34.5466 108.817 34.1466 108.071 33.88C107.324 33.6 106.557 33.46 105.771 33.46C105.211 33.46 104.717 33.5466 104.291 33.72C103.877 33.8933 103.551 34.1333 103.311 34.44C103.084 34.7466 102.971 35.0866 102.971 35.46C102.971 35.9666 103.137 36.36 103.471 36.64C103.817 36.9066 104.371 37.1066 105.131 37.24L107.631 37.66C109.044 37.9133 110.084 38.3533 110.751 38.98C111.431 39.6066 111.771 40.4533 111.771 41.52C111.771 42.3733 111.531 43.1333 111.051 43.8C110.584 44.4666 109.931 44.9866 109.091 45.36C108.251 45.7333 107.271 45.92 106.151 45.92ZM117.952 45.9C116.939 45.9 116.172 45.6666 115.652 45.2C115.132 44.72 114.872 44.02 114.872 43.1V37.48H112.872V35.68H114.872V32.92L117.132 32.44V35.68H119.912V37.48H117.132V42.6C117.132 43.0933 117.239 43.4466 117.452 43.66C117.665 43.86 118.025 43.96 118.532 43.96C118.759 43.96 118.965 43.9466 119.152 43.92C119.352 43.88 119.599 43.8133 119.892 43.72V45.62C119.612 45.7133 119.292 45.78 118.932 45.82C118.585 45.8733 118.259 45.9 117.952 45.9ZM126.337 45.88C125.39 45.88 124.53 45.6533 123.757 45.2C122.997 44.7466 122.397 44.1333 121.957 43.36C121.517 42.5733 121.297 41.6866 121.297 40.7C121.297 39.7133 121.517 38.8333 121.957 38.06C122.397 37.2733 122.997 36.6533 123.757 36.2C124.517 35.7466 125.377 35.52 126.337 35.52C127.297 35.52 128.15 35.7466 128.897 36.2C129.657 36.6533 130.257 37.2733 130.697 38.06C131.137 38.8333 131.357 39.7133 131.357 40.7C131.357 41.6866 131.137 42.5733 130.697 43.36C130.257 44.1333 129.657 44.7466 128.897 45.2C128.15 45.6533 127.297 45.88 126.337 45.88ZM126.337 43.96C126.884 43.96 127.364 43.82 127.777 43.54C128.204 43.26 128.537 42.8733 128.777 42.38C129.017 41.8733 129.137 41.3133 129.137 40.7C129.137 40.0733 129.017 39.52 128.777 39.04C128.537 38.5466 128.204 38.16 127.777 37.88C127.364 37.5866 126.884 37.44 126.337 37.44C125.79 37.44 125.304 37.5866 124.877 37.88C124.45 38.16 124.117 38.5466 123.877 39.04C123.637 39.52 123.517 40.0733 123.517 40.7C123.517 41.3266 123.637 41.8866 123.877 42.38C124.117 42.8733 124.45 43.26 124.877 43.54C125.304 43.82 125.79 43.96 126.337 43.96ZM133.691 45.7V35.68H135.951V37.84C136.244 37.08 136.624 36.5 137.091 36.1C137.557 35.7 138.097 35.5 138.711 35.5C138.897 35.5133 139.064 35.5333 139.211 35.56C139.357 35.5733 139.517 35.62 139.691 35.7V37.68C139.517 37.6 139.317 37.54 139.091 37.5C138.877 37.46 138.664 37.44 138.451 37.44C137.904 37.44 137.411 37.5866 136.971 37.88C136.544 38.1733 136.204 38.58 135.951 39.1V45.7H133.691ZM145.733 45.9C144.773 45.9 143.907 45.6733 143.133 45.22C142.36 44.7533 141.747 44.1333 141.293 43.36C140.84 42.5733 140.613 41.6866 140.613 40.7C140.613 39.7133 140.827 38.8333 141.253 38.06C141.68 37.2866 142.26 36.6733 142.993 36.22C143.74 35.7533 144.567 35.52 145.473 35.52C146.407 35.52 147.227 35.7466 147.933 36.2C148.653 36.6533 149.213 37.2666 149.613 38.04C150.027 38.8133 150.233 39.7 150.233 40.7V41.24H142.833C142.913 41.7866 143.087 42.2733 143.353 42.7C143.633 43.1133 143.987 43.44 144.413 43.68C144.853 43.92 145.327 44.04 145.833 44.04C146.3 44.04 146.74 43.96 147.153 43.8C147.58 43.6266 147.933 43.3933 148.213 43.1L149.693 44.44C149.08 44.9466 148.453 45.32 147.813 45.56C147.187 45.7866 146.493 45.9 145.733 45.9ZM142.853 39.84H148.093C148.013 39.36 147.847 38.9333 147.593 38.56C147.353 38.1866 147.047 37.8933 146.673 37.68C146.313 37.4666 145.913 37.36 145.473 37.36C145.033 37.36 144.627 37.4666 144.253 37.68C143.893 37.88 143.593 38.1666 143.353 38.54C143.113 38.9133 142.947 39.3466 142.853 39.84Z" fill="#F5FFFF"/>
<defs>
<clipPath id="clip0_4187_43467">
<rect width="32" height="32" fill="white" transform="translate(16.9 13.7)"/>
</clipPath>
</defs>
</svg>
