<svg width="187" height="59" viewBox="0 0 187 59" fill="none" xmlns="http://www.w3.org/2000/svg">
<rect x="0.899994" y="0.699951" width="186" height="58" rx="8" fill="#1F4149"/>
<path d="M19.9 17.418V41.9805C19.9002 42.0338 19.9161 42.0859 19.9457 42.1302C19.9753 42.1744 20.0174 42.209 20.0666 42.2295C20.1158 42.25 20.1699 42.2555 20.2222 42.2453C20.2746 42.2352 20.3227 42.2098 20.3606 42.1724L33.15 29.6999L20.3606 17.2261C20.3227 17.1887 20.2746 17.1634 20.2222 17.1532C20.1699 17.143 20.1158 17.1485 20.0666 17.169C20.0174 17.1895 19.9753 17.2241 19.9457 17.2684C19.9161 17.3127 19.9002 17.3647 19.9 17.418ZM38.5125 24.5749L22.4763 15.7399L22.4663 15.7343C22.19 15.5843 21.9275 15.958 22.1538 16.1755L34.7244 28.1955L38.5125 24.5749ZM22.155 43.2243C21.9275 43.4418 22.19 43.8155 22.4675 43.6655L22.4775 43.6599L38.5125 34.8249L34.7244 31.203L22.155 43.2243ZM44.9863 28.1374L40.5081 25.6711L36.2975 29.6999L40.5081 33.7268L44.9863 31.2624C46.2044 30.5893 46.2044 28.8105 44.9863 28.1374Z" fill="#F5FFFF"/>
<path d="M62.23 21.843C61.58 21.843 60.9777 21.7216 60.423 21.479C59.8684 21.2363 59.3787 20.9026 58.954 20.478C58.538 20.0446 58.213 19.5463 57.979 18.983C57.745 18.411 57.628 17.8 57.628 17.15C57.628 16.5 57.745 15.8933 57.979 15.33C58.213 14.758 58.538 14.2596 58.954 13.835C59.3787 13.4016 59.8684 13.0636 60.423 12.821C60.9777 12.5783 61.58 12.457 62.23 12.457C62.9234 12.457 63.5777 12.5826 64.193 12.834C64.817 13.0853 65.3457 13.458 65.779 13.952L65.103 14.628C64.765 14.2206 64.3404 13.9086 63.829 13.692C63.3177 13.4753 62.7847 13.367 62.23 13.367C61.7187 13.367 61.2464 13.4666 60.813 13.666C60.3797 13.8566 59.9984 14.1253 59.669 14.472C59.3484 14.81 59.097 15.2086 58.915 15.668C58.733 16.1273 58.642 16.6213 58.642 17.15C58.642 17.6786 58.733 18.1726 58.915 18.632C59.097 19.0913 59.3484 19.4943 59.669 19.841C59.9984 20.179 60.3797 20.4476 60.813 20.647C61.2464 20.8376 61.7187 20.933 62.23 20.933C62.8367 20.933 63.3784 20.7986 63.855 20.53C64.3404 20.2613 64.7304 19.893 65.025 19.425C65.3284 18.9483 65.506 18.4153 65.558 17.826H62.49V16.942H66.572V17.345C66.572 17.9776 66.4637 18.567 66.247 19.113C66.0304 19.6503 65.7227 20.127 65.324 20.543C64.934 20.9503 64.4747 21.271 63.946 21.505C63.4174 21.7303 62.8454 21.843 62.23 21.843ZM68.1818 21.7V12.6H74.3958V13.484H69.1828V16.669H72.7968V17.54H69.1828V20.816H74.4478V21.7H68.1818ZM78.3236 21.7V13.484H75.1776V12.6H82.4706V13.484H79.3246V21.7H78.3236ZM86.4952 21.7V12.6H87.4962V21.7H86.4952ZM91.8893 21.7V13.484H88.7433V12.6H96.0363V13.484H92.8903V21.7H91.8893ZM104.182 21.843C103.549 21.843 102.96 21.726 102.414 21.492C101.868 21.2493 101.387 20.9156 100.971 20.491C100.564 20.0576 100.243 19.5593 100.009 18.996C99.7749 18.424 99.6579 17.8086 99.6579 17.15C99.6579 16.4913 99.7749 15.8803 100.009 15.317C100.243 14.745 100.564 14.2466 100.971 13.822C101.387 13.3886 101.868 13.055 102.414 12.821C102.96 12.5783 103.549 12.457 104.182 12.457C104.815 12.457 105.404 12.5783 105.95 12.821C106.496 13.055 106.973 13.3886 107.38 13.822C107.796 14.2466 108.121 14.745 108.355 15.317C108.589 15.8803 108.706 16.4913 108.706 17.15C108.706 17.8086 108.589 18.424 108.355 18.996C108.121 19.5593 107.796 20.0576 107.38 20.491C106.973 20.9156 106.496 21.2493 105.95 21.492C105.404 21.726 104.815 21.843 104.182 21.843ZM104.182 20.933C104.676 20.933 105.135 20.8376 105.56 20.647C105.985 20.4563 106.357 20.1876 106.678 19.841C106.999 19.4943 107.246 19.0913 107.419 18.632C107.601 18.1726 107.692 17.6786 107.692 17.15C107.692 16.6126 107.601 16.1186 107.419 15.668C107.246 15.2086 106.999 14.8056 106.678 14.459C106.357 14.1123 105.985 13.8436 105.56 13.653C105.135 13.4623 104.676 13.367 104.182 13.367C103.688 13.367 103.229 13.4623 102.804 13.653C102.379 13.8436 102.007 14.1123 101.686 14.459C101.365 14.8056 101.114 15.2086 100.932 15.668C100.759 16.1186 100.672 16.6083 100.672 17.137C100.672 17.6743 100.759 18.1726 100.932 18.632C101.114 19.0913 101.365 19.4943 101.686 19.841C102.007 20.1876 102.379 20.4563 102.804 20.647C103.229 20.8376 103.688 20.933 104.182 20.933ZM110.338 21.7V12.6H111.378L116.708 20.14L116.682 12.6H117.631V21.7H116.721L111.261 13.991L111.287 21.7H110.338ZM65.12 45.92C64.1067 45.92 63.1667 45.7333 62.3 45.36C61.4334 44.9866 60.6667 44.4733 60 43.82C59.3467 43.1533 58.8334 42.3866 58.46 41.52C58.1 40.64 57.92 39.7 57.92 38.7C57.92 37.7 58.1 36.7666 58.46 35.9C58.8334 35.02 59.3467 34.2533 60 33.6C60.6534 32.9333 61.4134 32.4133 62.28 32.04C63.1467 31.6666 64.0867 31.48 65.1 31.48C66.22 31.48 67.2734 31.6933 68.26 32.12C69.26 32.5466 70.0934 33.1666 70.76 33.98L69.08 35.48C68.6 34.88 68.0134 34.4266 67.32 34.12C66.6267 33.8 65.8867 33.64 65.1 33.64C64.42 33.64 63.7934 33.7666 63.22 34.02C62.6467 34.2733 62.1467 34.6333 61.72 35.1C61.3067 35.5533 60.98 36.0866 60.74 36.7C60.5 37.3133 60.38 37.98 60.38 38.7C60.38 39.42 60.5 40.0933 60.74 40.72C60.98 41.3333 61.3134 41.8666 61.74 42.32C62.18 42.7733 62.6867 43.1333 63.26 43.4C63.8334 43.6533 64.4667 43.78 65.16 43.78C65.9067 43.78 66.58 43.6266 67.18 43.32C67.78 43 68.2734 42.56 68.66 42C69.06 41.44 69.3067 40.8133 69.4 40.12H65.24V38.06H71.94V38.84C71.94 39.8533 71.7667 40.7866 71.42 41.64C71.0867 42.4933 70.6134 43.2466 70 43.9C69.3867 44.54 68.6667 45.04 67.84 45.4C67.0134 45.7466 66.1067 45.92 65.12 45.92ZM78.9152 45.88C77.9685 45.88 77.1085 45.6533 76.3352 45.2C75.5752 44.7466 74.9752 44.1333 74.5352 43.36C74.0952 42.5733 73.8752 41.6866 73.8752 40.7C73.8752 39.7133 74.0952 38.8333 74.5352 38.06C74.9752 37.2733 75.5752 36.6533 76.3352 36.2C77.0952 35.7466 77.9552 35.52 78.9152 35.52C79.8752 35.52 80.7285 35.7466 81.4752 36.2C82.2352 36.6533 82.8352 37.2733 83.2752 38.06C83.7152 38.8333 83.9352 39.7133 83.9352 40.7C83.9352 41.6866 83.7152 42.5733 83.2752 43.36C82.8352 44.1333 82.2352 44.7466 81.4752 45.2C80.7285 45.6533 79.8752 45.88 78.9152 45.88ZM78.9152 43.96C79.4618 43.96 79.9418 43.82 80.3552 43.54C80.7818 43.26 81.1152 42.8733 81.3552 42.38C81.5952 41.8733 81.7152 41.3133 81.7152 40.7C81.7152 40.0733 81.5952 39.52 81.3552 39.04C81.1152 38.5466 80.7818 38.16 80.3552 37.88C79.9418 37.5866 79.4618 37.44 78.9152 37.44C78.3685 37.44 77.8818 37.5866 77.4552 37.88C77.0285 38.16 76.6952 38.5466 76.4552 39.04C76.2152 39.52 76.0952 40.0733 76.0952 40.7C76.0952 41.3266 76.2152 41.8866 76.4552 42.38C76.6952 42.8733 77.0285 43.26 77.4552 43.54C77.8818 43.82 78.3685 43.96 78.9152 43.96ZM90.8488 45.88C89.9021 45.88 89.0421 45.6533 88.2688 45.2C87.5088 44.7466 86.9088 44.1333 86.4688 43.36C86.0288 42.5733 85.8088 41.6866 85.8088 40.7C85.8088 39.7133 86.0288 38.8333 86.4688 38.06C86.9088 37.2733 87.5088 36.6533 88.2688 36.2C89.0288 35.7466 89.8888 35.52 90.8488 35.52C91.8088 35.52 92.6621 35.7466 93.4088 36.2C94.1688 36.6533 94.7688 37.2733 95.2088 38.06C95.6488 38.8333 95.8688 39.7133 95.8688 40.7C95.8688 41.6866 95.6488 42.5733 95.2088 43.36C94.7688 44.1333 94.1688 44.7466 93.4088 45.2C92.6621 45.6533 91.8088 45.88 90.8488 45.88ZM90.8488 43.96C91.3954 43.96 91.8754 43.82 92.2888 43.54C92.7154 43.26 93.0488 42.8733 93.2888 42.38C93.5288 41.8733 93.6488 41.3133 93.6488 40.7C93.6488 40.0733 93.5288 39.52 93.2888 39.04C93.0488 38.5466 92.7154 38.16 92.2888 37.88C91.8754 37.5866 91.3954 37.44 90.8488 37.44C90.3021 37.44 89.8154 37.5866 89.3888 37.88C88.9621 38.16 88.6288 38.5466 88.3888 39.04C88.1488 39.52 88.0288 40.0733 88.0288 40.7C88.0288 41.3266 88.1488 41.8866 88.3888 42.38C88.6288 42.8733 88.9621 43.26 89.3888 43.54C89.8154 43.82 90.3021 43.96 90.8488 43.96ZM102.882 50.08C102.176 50.08 101.476 49.9933 100.782 49.82C100.089 49.6466 99.449 49.4066 98.8624 49.1L99.6424 47.44C100.242 47.72 100.789 47.9266 101.282 48.06C101.789 48.2066 102.289 48.28 102.782 48.28C103.622 48.28 104.256 48.0933 104.682 47.72C105.122 47.3466 105.342 46.7933 105.342 46.06V44.36C104.982 44.8 104.536 45.1466 104.002 45.4C103.469 45.64 102.889 45.76 102.262 45.76C101.422 45.76 100.662 45.5333 99.9824 45.08C99.3024 44.6133 98.7557 44 98.3424 43.24C97.9424 42.4666 97.7424 41.6066 97.7424 40.66C97.7424 39.7133 97.949 38.86 98.3624 38.1C98.7757 37.34 99.3357 36.7333 100.042 36.28C100.762 35.8266 101.556 35.6 102.422 35.6C103.009 35.6 103.556 35.7133 104.062 35.94C104.569 36.1666 105.002 36.5 105.362 36.94V35.68H107.602V46.06C107.602 47.3533 107.196 48.3466 106.382 49.04C105.569 49.7333 104.402 50.08 102.882 50.08ZM102.962 43.88C103.442 43.88 103.889 43.7866 104.302 43.6C104.716 43.4 105.062 43.1266 105.342 42.78V38.58C105.049 38.2333 104.696 37.9666 104.282 37.78C103.869 37.5933 103.429 37.5 102.962 37.5C102.389 37.5 101.876 37.64 101.422 37.92C100.982 38.1866 100.629 38.56 100.362 39.04C100.096 39.5066 99.9624 40.0533 99.9624 40.68C99.9624 41.28 100.096 41.8266 100.362 42.32C100.629 42.8 100.982 43.18 101.422 43.46C101.876 43.74 102.389 43.88 102.962 43.88ZM110.39 45.7V31.36L112.65 30.96V45.7H110.39ZM120.089 45.9C119.129 45.9 118.262 45.6733 117.489 45.22C116.716 44.7533 116.102 44.1333 115.649 43.36C115.196 42.5733 114.969 41.6866 114.969 40.7C114.969 39.7133 115.182 38.8333 115.609 38.06C116.036 37.2866 116.616 36.6733 117.349 36.22C118.096 35.7533 118.922 35.52 119.829 35.52C120.762 35.52 121.582 35.7466 122.289 36.2C123.009 36.6533 123.569 37.2666 123.969 38.04C124.382 38.8133 124.589 39.7 124.589 40.7V41.24H117.189C117.269 41.7866 117.442 42.2733 117.709 42.7C117.989 43.1133 118.342 43.44 118.769 43.68C119.209 43.92 119.682 44.04 120.189 44.04C120.656 44.04 121.096 43.96 121.509 43.8C121.936 43.6266 122.289 43.3933 122.569 43.1L124.049 44.44C123.436 44.9466 122.809 45.32 122.169 45.56C121.542 45.7866 120.849 45.9 120.089 45.9ZM117.209 39.84H122.449C122.369 39.36 122.202 38.9333 121.949 38.56C121.709 38.1866 121.402 37.8933 121.029 37.68C120.669 37.4666 120.269 37.36 119.829 37.36C119.389 37.36 118.982 37.4666 118.609 37.68C118.249 37.88 117.949 38.1666 117.709 38.54C117.469 38.9133 117.302 39.3466 117.209 39.84ZM131.666 45.7V31.7H137.926C138.873 31.7 139.693 31.8866 140.386 32.26C141.093 32.62 141.639 33.1266 142.026 33.78C142.413 34.4333 142.606 35.1933 142.606 36.06C142.606 36.8866 142.413 37.6266 142.026 38.28C141.639 38.9333 141.093 39.4466 140.386 39.82C139.693 40.18 138.873 40.36 137.926 40.36H134.066V45.7H131.666ZM134.066 38.4H137.546C138.399 38.4 139.053 38.1866 139.506 37.76C139.959 37.32 140.186 36.7466 140.186 36.04C140.186 35.3466 139.959 34.7866 139.506 34.36C139.053 33.9333 138.406 33.72 137.566 33.72H134.066V38.4ZM144.96 45.7V31.36L147.22 30.96V45.7H144.96ZM153.039 45.88C152.346 45.88 151.726 45.7533 151.179 45.5C150.646 45.2333 150.226 44.8733 149.919 44.42C149.626 43.9533 149.479 43.42 149.479 42.82C149.479 42.22 149.633 41.7 149.939 41.26C150.259 40.82 150.706 40.48 151.279 40.24C151.853 40 152.533 39.88 153.319 39.88C153.786 39.88 154.246 39.9333 154.699 40.04C155.153 40.1333 155.593 40.2933 156.019 40.52V39.4C156.019 38.7333 155.826 38.2333 155.439 37.9C155.066 37.5666 154.493 37.4 153.719 37.4C153.306 37.4 152.859 37.4666 152.379 37.6C151.913 37.72 151.386 37.9133 150.799 38.18L149.999 36.54C151.466 35.86 152.853 35.52 154.159 35.52C155.466 35.52 156.473 35.84 157.179 36.48C157.899 37.1066 158.259 38 158.259 39.16V45.7H156.019V44.66C155.593 45.0733 155.133 45.38 154.639 45.58C154.146 45.78 153.613 45.88 153.039 45.88ZM151.599 42.78C151.599 43.2466 151.786 43.6133 152.159 43.88C152.533 44.1466 153.033 44.28 153.659 44.28C154.113 44.28 154.533 44.2133 154.919 44.08C155.319 43.9333 155.686 43.72 156.019 43.44V41.82C155.673 41.66 155.313 41.54 154.939 41.46C154.566 41.38 154.159 41.34 153.719 41.34C153.066 41.34 152.546 41.4666 152.159 41.72C151.786 41.9733 151.599 42.3266 151.599 42.78ZM161.52 50.08C161.16 50.08 160.787 50.0333 160.4 49.94V47.98C160.533 48.0066 160.673 48.0266 160.82 48.04C160.98 48.0533 161.133 48.06 161.28 48.06C161.68 48.06 162.007 47.9666 162.26 47.78C162.513 47.5933 162.727 47.3066 162.9 46.92L163.36 45.8L159.58 35.68H162.08L164.64 43.1L167.42 35.68H169.9L165.1 47.44C164.847 48.08 164.56 48.5933 164.24 48.98C163.92 49.3666 163.54 49.6466 163.1 49.82C162.673 49.9933 162.147 50.08 161.52 50.08Z" fill="#F5FFFF"/>
</svg>
