<svg width="52" height="59" viewBox="0 0 52 59" fill="none" xmlns="http://www.w3.org/2000/svg">
<path d="M32.6707 22.4974L34.144 21.0254L34.8507 20.3187C35.5318 19.6377 36.0721 18.8292 36.4407 17.9394C36.8094 17.0496 36.9991 16.0959 36.9991 15.1327C36.9991 14.1696 36.8094 13.2158 36.4407 12.326C36.0721 11.4362 35.5318 10.6277 34.8507 9.94672V9.94672C33.4754 8.57152 31.6102 7.79895 29.6653 7.79895C27.7205 7.79895 25.8553 8.57152 24.48 9.94672L6.22933 28.1974C6.19367 28.2331 6.17365 28.2816 6.17365 28.332C6.17365 28.3825 6.19367 28.431 6.22933 28.4667L15.5227 37.76C15.7727 38.01 16.1118 38.1504 16.4653 38.1504C16.8189 38.1504 17.158 38.01 17.408 37.76L22.3587 32.8107L23.832 31.3374" stroke="#01232B" stroke-width="4" stroke-linecap="round"/>
<path d="M31.5507 6.64672L33.908 4.28939C34.3414 3.85603 34.8558 3.51227 35.4221 3.27773C35.9883 3.0432 36.5951 2.92249 37.208 2.92249C37.8209 2.92249 38.4277 3.0432 38.9939 3.27773C39.5602 3.51227 40.0746 3.85603 40.508 4.28939C40.9414 4.72275 41.2851 5.23723 41.5197 5.80344C41.7542 6.36966 41.8749 6.97652 41.8749 7.58939C41.8749 8.20226 41.7542 8.80912 41.5197 9.37534C41.2851 9.94155 40.9414 10.456 40.508 10.8894L38.1507 13.2467L31.5507 6.64672V6.64672ZM7.98 30.2174L2.32401 35.8747L8.924 42.4747L14.58 36.8174L7.98 30.2174Z" stroke="#01232B" stroke-width="4" stroke-linecap="round" stroke-linejoin="round"/>
<path d="M24.48 31.632C26.8232 33.9751 30.6222 33.9751 32.9653 31.632C35.3084 29.2888 35.3084 25.4898 32.9653 23.1467C30.6222 20.8035 26.8232 20.8035 24.48 23.1467C22.1369 25.4898 22.1369 29.2888 24.48 31.632Z" stroke="#01232B" stroke-width="4"/>
<path d="M35.3333 27.3334C40.6667 27.3334 46 32.6667 46 40.6667C46 49.2001 39.1107 53.7774 35.3333 56.6667M2 24.6667L18.9707 41.6374L2 24.6667ZM7.33333 56.6667H50H7.33333Z" stroke="#01232B" stroke-width="4" stroke-linecap="round" stroke-linejoin="round"/>
</svg>
