<svg width="188" height="188" viewBox="0 0 188 188" fill="none" xmlns="http://www.w3.org/2000/svg">
<g style="mix-blend-mode:multiply" clip-path="url(#clip0_5329_1457)">
<path fill-rule="evenodd" clip-rule="evenodd" d="M4.94992 58.4734C3.96532 54.7988 4.48077 50.8836 6.38287 47.5891C8.28497 44.2946 11.4179 41.8906 15.0925 40.906L116.696 13.6814C120.37 12.6968 124.286 13.2123 127.58 15.1144C130.875 17.0165 133.279 20.1494 134.263 23.824L163.963 134.664C164.947 138.339 164.432 142.254 162.53 145.548C160.628 148.843 157.495 151.247 153.82 152.231L52.2168 179.456C48.5423 180.441 44.6271 179.925 41.3325 178.023C38.038 176.121 35.634 172.988 34.6494 169.313L4.94992 58.4734ZM17.5674 50.1426C16.3426 50.4708 15.2983 51.2722 14.6642 52.3703C14.0302 53.4685 13.8584 54.7736 14.1866 55.9984L43.8861 166.838C44.2143 168.063 45.0156 169.108 46.1138 169.742C47.212 170.376 48.517 170.547 49.7419 170.219L151.345 142.995C152.57 142.667 153.614 141.865 154.248 140.767C154.882 139.669 155.054 138.364 154.726 137.139L125.027 26.299C124.698 25.0741 123.897 24.0298 122.799 23.3958C121.701 22.7617 120.396 22.5899 119.171 22.9181L17.5674 50.1426Z" fill="#B7D5C2"/>
<path fill-rule="evenodd" clip-rule="evenodd" d="M150.593 29.3482C151.818 29.02 153.123 29.1918 154.221 29.8259C155.319 30.4599 156.121 31.5042 156.449 32.7291L182.436 129.714C183.421 133.389 182.905 137.304 181.003 140.598C179.101 143.893 175.968 146.297 172.294 147.281L144.584 154.706L142.109 145.47L169.819 138.045C171.043 137.717 172.088 136.915 172.722 135.817C173.356 134.719 173.528 133.414 173.199 132.189L147.212 35.204C146.884 33.9792 147.056 32.6741 147.69 31.5759C148.324 30.4778 149.368 29.6764 150.593 29.3482Z" fill="#B7D5C2"/>
<path d="M25.8982 62.76L118.265 38.0104L123.215 56.4838L30.8481 81.2333L25.8982 62.76ZM33.3231 90.47L70.2697 80.5702L77.6946 108.28L40.7479 118.18L33.3231 90.47ZM43.2229 127.417L80.1696 117.517L82.6445 126.754L45.6979 136.653L43.2229 127.417ZM48.1728 145.89L85.1195 135.99L87.5944 145.227L50.6478 155.127L48.1728 145.89ZM79.5064 78.0952L97.9797 73.1453L100.455 82.382L81.9813 87.3319L79.5064 78.0952ZM107.216 70.6703L125.69 65.7204L128.165 74.9571L109.691 79.907L107.216 70.6703ZM84.4563 96.5686L102.93 91.6186L105.405 100.855L86.9313 105.805L84.4563 96.5686ZM112.166 89.1437L130.64 84.1938L133.115 93.4304L114.641 98.3803L112.166 89.1437ZM89.4062 115.042L107.88 110.092L110.355 119.329L91.8812 124.279L89.4062 115.042ZM117.116 107.617L135.59 102.667L138.065 111.904L119.591 116.854L117.116 107.617ZM94.3561 133.515L112.829 128.565L115.304 137.802L96.8311 142.752L94.3561 133.515ZM122.066 126.09L140.539 121.14L143.014 130.377L124.541 135.327L122.066 126.09Z" fill="#B7D5C2"/>
</g>
<defs>
<clipPath id="clip0_5329_1457">
<rect width="153" height="153" fill="white" transform="translate(0 40) rotate(-15)"/>
</clipPath>
</defs>
</svg>
